<?xml version="1.0" standalone="no"?>
<!DOCTYPE svg PUBLIC "-//W3C//DTD SVG 20010904//EN"
 "http://www.w3.org/TR/2001/REC-SVG-20010904/DTD/svg10.dtd">
<svg version="1.0" xmlns="http://www.w3.org/2000/svg"
 width="167.000000pt" height="59.000000pt" viewBox="0 0 167.000000 59.000000"
 preserveAspectRatio="xMidYMid meet">
<metadata>
Created by potrace 1.12, written by Peter Selinger 2001-2015
</metadata>
<g transform="translate(0.000000,59.000000) scale(0.100000,-0.100000)"
fill="#000000" stroke="none">
<path d="M160 364 c0 -135 4 -233 10 -245 27 -49 138 -66 198 -29 56 34 62 64
62 295 l0 205 -135 0 -135 0 0 -226z"/>
<path d="M867 580 c99 -20 170 -66 206 -135 16 -29 16 -28 17 58 l0 87 -132
-1 c-99 -1 -122 -3 -91 -9z"/>
<path d="M1445 583 c92 -19 135 -56 135 -114 0 -40 -47 -86 -98 -95 l-36 -7
54 -14 c75 -19 134 -56 153 -95 16 -32 17 -26 17 150 l0 182 -122 -1 c-68 -1
-114 -3 -103 -6z"/>
<path d="M670 396 c0 -133 2 -148 20 -166 43 -43 166 -14 203 48 21 37 23 122
3 160 -31 60 -74 85 -168 96 l-58 7 0 -145z"/>
<path d="M1250 454 l0 -77 62 7 c71 8 93 18 109 47 29 55 -23 99 -116 99 l-55
0 0 -76z"/>
<path d="M1071 301 c-17 -41 -68 -86 -126 -113 -43 -19 -67 -23 -162 -23
l-113 0 0 -82 0 -83 210 0 210 0 0 165 c0 91 -2 165 -4 165 -2 0 -9 -13 -15
-29z"/>
<path d="M1250 189 l0 -142 72 8 c130 12 178 49 178 136 0 90 -71 139 -199
139 l-51 0 0 -141z"/>
<path d="M1660 136 c0 -21 -48 -74 -84 -93 -17 -9 -51 -22 -76 -29 -44 -12
-42 -12 63 -13 l107 -1 0 75 c0 41 -2 75 -5 75 -3 0 -5 -6 -5 -14z"/>
<path d="M0 68 l0 -68 78 1 c55 0 69 3 50 9 -51 15 -88 45 -108 85 l-20 40 0
-67z"/>
<path d="M385 43 c-16 -9 -48 -22 -70 -29 -40 -13 -40 -13 38 -13 l77 -1 0 30
c0 34 -4 35 -45 13z"/>
</g>
</svg>
