<?xml version="1.0" encoding="UTF-8"?>
<svg version="1.0" xmlns="http://www.w3.org/2000/svg"
 width="32" height="32" viewBox="0 0 498 498"
 preserveAspectRatio="xMidYMid meet">
<!-- Fondo blanco circular -->
<circle cx="249" cy="249" r="249" fill="#ffffff"/>
<!-- Escudo UPB -->
<g transform="translate(0.000000,498.000000) scale(0.100000,-0.100000)"
 fill="#000000" stroke="none">
<path d="M1515 4359 c22 -11 186 -89 365 -173 l325 -153 3 -152 3 -151 -406 0 -405 0 0 -505 0 -506 -147 3 -147 3 -172 363 c-94 200 -175 366 -178 369 -3 4 -6 -434 -6 -972 0 -590 4 -975 9 -969 5 5 86 153 179 329 l170 320 146 3 145 3 3 -283 3 -283 29 -60 c43 -89 170 -211 271 -261 l79 -39 213 -3 213 -3 0 -148 0 -148 -367 -174 -367 -174 506 -3 c279 -1 736 -1 1017 0 l511 3 -370 175 -370 174 0 148 0 147 213 3 212 3 69 32 c86 41 181 117 233 185 80 105 77 90 83 413 l5 290 142 3 143 3 19 -32 c11 -18 91 -166 178 -331 l158 -299 3 491 c1 270 1 709 0 974 l-3 483 -174 -368 -175 -369 -148 0 -148 0 0 505 0 505 -405 0 -405 0 0 149 0 148 323 153 c177 84 342 163 367 176 l45 23 -1015 0 -1015 0 40 -20z m1075 -479 l0 -150 -95 0 -95 0 0 150 0 150 95 0 95 0 0 -150z m950 -1227 c0 -985 -1 -1040 -19 -1078 -43 -95 -156 -204 -270 -261 l-56 -29 -320 -5 c-314 -5 -321 -5 -352 -28 l-32 -23 -32 23 c-30 23 -36 23 -348 28 l-317 5 -69 34 c-85 42 -220 171 -256 246 l-24 50 -3 1038 -2 1037 1050 0 1050 0 0 -1037z m-2140 -203 l0 -100 -145 0 -145 0 0 100 0 100 145 0 145 0 0 -100z m2478 -2 l3 -98 -151 0 -150 0 0 93 c0 52 3 97 7 101 4 3 70 5 147 4 l141 -3 3 -97z m-1424 -1247 c26 -29 49 -26 84 9 17 17 35 30 41 30 7 0 11 -50 11 -150 l0 -150 -95 0 -95 0 0 150 c0 141 1 150 18 141 9 -5 26 -19 36 -30z"/>
<path d="M1682 2542 l3 -929 28 -36 c57 -74 70 -77 392 -77 307 0 333 -4 371 -52 l19 -25 19 25 c37 48 63 52 379 52 289 0 295 0 328 23 18 12 44 38 56 56 l23 34 0 928 0 929 -810 0 -810 0 2 -928z m1333 706 c67 -34 101 -101 90 -174 -7 -51 -53 -111 -91 -120 -42 -11 -26 -24 27 -24 38 0 55 5 65 18 12 15 13 12 14 -25 l0 -43 -75 0 -75 0 0 36 c0 28 8 43 36 69 l36 34 -4 82 c-3 76 -5 82 -35 109 -91 82 -213 16 -213 -115 0 -46 24 -115 40 -115 20 0 40 -34 40 -66 l0 -34 -80 0 -80 0 0 40 c0 40 13 53 24 25 4 -11 20 -15 56 -15 27 0 50 3 50 8 0 4 -16 16 -35 26 -99 54 -105 208 -10 270 52 34 165 41 220 14z m-870 -155 c41 -100 80 -179 96 -195 l27 -28 -76 1 c-56 0 -71 3 -54 9 26 11 27 21 6 77 l-17 43 -74 0 -74 0 -19 -42 c-26 -57 -25 -65 8 -76 23 -9 16 -10 -43 -11 -66 0 -68 1 -44 14 20 11 43 54 104 195 43 99 81 180 84 180 4 0 38 -75 76 -167z m451 -499 c96 -95 119 -190 62 -251 -97 -104 -280 -49 -280 83 0 27 9 45 44 82 23 26 50 57 58 70 15 23 16 21 53 -63 35 -78 37 -89 27 -121 -24 -73 -69 -3 -53 84 8 43 7 55 -4 59 -33 13 -103 -67 -103 -117 1 -91 113 -148 205 -104 98 46 92 159 -13 267 -41 42 -102 86 -102 73 0 -2 33 -37 73 -77 87 -88 111 -144 83 -198 -9 -17 -30 -37 -46 -46 -43 -22 -46 -19 -12 13 38 35 48 73 32 113 -15 36 -109 155 -120 152 -8 -2 -30 49 -30 69 0 18 65 -28 126 -88z m-639 -477 c-36 -14 -40 -35 -35 -177 4 -109 6 -122 28 -145 19 -21 33 -25 78 -25 46 0 58 4 83 29 l29 29 0 136 0 135 -27 15 c-27 15 -26 15 42 15 68 0 69 0 43 -15 l-28 -15 0 -127 c0 -101 -4 -134 -18 -162 -25 -51 -72 -72 -150 -68 -55 4 -67 8 -94 36 -36 36 -46 83 -47 238 -1 89 -1 90 -28 101 -23 9 -13 11 62 11 76 0 86 -2 62 -11z m645 3 c46 -13 88 -61 88 -102 0 -21 -10 -40 -34 -64 -31 -31 -39 -34 -95 -34 l-61 0 0 -69 c0 -70 7 -84 45 -94 11 -2 -20 -5 -70 -5 -51 0 -79 3 -65 7 l25 7 3 166 2 167 -27 15 c-27 15 -24 15 62 16 50 0 107 -5 127 -10z m469 0 c81 -23 111 -108 55 -156 -15 -13 -22 -24 -16 -24 6 0 22 -11 35 -25 48 -47 26 -130 -42 -156 -13 -5 -77 -9 -141 -9 -101 0 -114 2 -92 13 25 13 25 13 28 174 l2 162 -27 15 c-27 14 -23 15 67 16 52 0 111 -5 131 -10z"/>
<path d="M2500 2020 l0 -80 40 0 c72 0 106 75 59 134 -16 20 -29 26 -60 26 l-39 0 0 -80z"/>
<path d="M2963 2104 c-9 -4 -13 -29 -13 -75 l0 -69 55 0 c42 0 60 5 75 20 27 27 26 71 -4 99 -23 22 -88 36 -113 25z"/>
<path d="M2952 1853 l3 -78 45 -3 c55 -3 92 15 104 49 22 64 -23 109 -109 109 l-46 0 3 -77z"/>
</g>
</svg>
